Coordinates
version=1
nRows=17
nColumns=40
inDegrees=yes

Units are S.I. units (second, meters, Newtons, ...)
If the header above contains a line with 'inDegrees', this indicates whether rotational values are in degrees (yes) or radians (no).

endheader
time	pelvis_tilt	pelvis_list	pelvis_rotation	pelvis_tx	pelvis_ty	pelvis_tz	hip_flexion_r	hip_adduction_r	hip_rotation_r	knee_angle_r	knee_angle_r_beta	ankle_angle_r	subtalar_angle_r	mtp_angle_r	hip_flexion_l	hip_adduction_l	hip_rotation_l	knee_angle_l	knee_angle_l_beta	ankle_angle_l	subtalar_angle_l	mtp_angle_l	lumbar_extension	lumbar_bending	lumbar_rotation	arm_flex_r	arm_add_r	arm_rot_r	elbow_flex_r	pro_sup_r	wrist_flex_r	wrist_dev_r	arm_flex_l	arm_add_l	arm_rot_l	elbow_flex_l	pro_sup_l	wrist_flex_l	wrist_dev_l
      3.25000000	     14.44616740	     10.68795178	     -2.40888511	     -0.35714949	      1.08750313	     -0.75624358	      0.57115481	     -9.20560225	     -7.36709029	     28.03348922	      0.48927669	      1.81035204	      0.00000000	      0.00000000	     36.84413693	      5.57129777	      3.16239429	      9.18325727	      0.16027808	     -7.58914782	      0.00000000	      0.00000000	    -17.56938185	     -6.88171192	      3.69027706	     89.84008610	    -18.17635761	     40.80447236	     31.12892565	     85.34330234	      0.00000000	      0.00000000	     89.89294545	    -10.05262346	     33.72418278	     36.82966448	     84.94743188	      0.00000000	      0.00000000
      3.25500000	     14.47933394	     10.61632214	     -2.42082892	     -0.35714776	      1.08751727	     -0.75613170	      0.54389437	     -9.15962610	     -7.43483749	     28.06183359	      0.48977139	      1.81416825	      0.00000000	      0.00000000	     36.84195769	      5.48846472	      3.17739461	      9.11753889	      0.15913107	     -7.62365421	      0.00000000	      0.00000000	    -17.61137736	     -6.79310759	      3.74619214	     89.84062702	    -18.19344967	     40.78808989	     31.14758966	     85.29867411	      0.00000000	      0.00000000	     89.89268520	    -10.01129484	     33.65239980	     36.78970140	     85.01514010	      0.00000000	      0.00000000
      3.26000000	     14.48092016	     10.57158575	     -2.41746714	     -0.35713654	      1.08747999	     -0.75609016	      0.54840681	     -9.14904142	     -7.52009796	     28.08889854	      0.49024376	      1.77236093	      0.00000000	      0.00000000	     36.90996695	      5.43318176	      3.19939794	      9.14766554	      0.15965688	     -7.50502081	      0.00000000	      0.00000000	    -17.61789666	     -6.72479212	      3.77383016	     89.84138376	    -18.17686790	     40.72209063	     31.13581936	     85.27107899	      0.00000000	      0.00000000	     89.89262067	    -10.00127873	     33.65522153	     36.75751420	     84.98623721	      0.00000000	      0.00000000
      3.26500000	     14.47274970	     10.52113034	     -2.40109712	     -0.35717025	      1.08746228	     -0.75599853	      0.57917788	     -9.14107895	     -7.63777321	     28.15413015	      0.49138227	      1.69079630	      0.00000000	      0.00000000	     36.96864776	      5.35991058	      3.12183727	      9.11973109	      0.15916933	     -7.52830265	      0.00000000	      0.00000000	    -17.62291977	     -6.66039991	      3.80962516	     89.84230783	    -18.19363981	     40.68112271	     31.14157329	     85.30522677	      0.00000000	      0.00000000	     89.89271635	     -9.97942632	     33.66559795	     36.76600427	     85.00748626	      0.00000000	      0.00000000
      3.27000000	     14.47171452	     10.48575914	     -2.38625620	     -0.35719450	      1.08740152	     -0.75594248	      0.59339775	     -9.14084643	     -7.74402973	     28.18443412	      0.49191117	      1.59693302	      0.00000000	      0.00000000	     37.02461367	      5.30588242	      3.00417290	      9.13208039	      0.15938487	     -7.55009433	      0.00000000	      0.00000000	    -17.63069724	     -6.59650771	      3.80877001	     89.84168702	    -18.15103127	     40.57550687	     31.13477347	     85.30969547	      0.00000000	      0.00000000	     89.89317484	     -9.99793375	     33.67869846	     36.75405603	     85.01900922	      0.00000000	      0.00000000
      3.27500000	     14.46371541	     10.46643422	     -2.35993669	     -0.35721186	      1.08736217	     -0.75593319	      0.62834293	     -9.17204831	     -7.87585557	     28.26138673	      0.49325425	      1.54267152	      0.00000000	      0.00000000	     37.10563891	      5.28838111	      3.04537870	      9.18494775	      0.16030758	     -7.41120370	      0.00000000	      0.00000000	    -17.63350785	     -6.54735854	      3.79878693	     89.84149431	    -18.12968589	     40.47932111	     31.16250279	     85.30776828	      0.00000000	      0.00000000	     89.89360391	     -9.99846526	     33.73452487	     36.71162598	     84.98108767	      0.00000000	      0.00000000
      3.28000000	     14.45247462	     10.40544169	     -2.32887571	     -0.35722777	      1.08730767	     -0.75588202	      0.66350437	     -9.14717382	     -8.00532234	     28.32709802	      0.49440113	      1.50419240	      0.00000000	      0.00000000	     37.18988634	      5.21795163	      2.91229870	      9.16136680	      0.15989601	     -7.52304757	      0.00000000	      0.00000000	    -17.63125738	     -6.45046588	      3.81908510	     89.84247011	    -18.13724925	     40.46056394	     31.17578734	     85.31088360	      0.00000000	      0.00000000	     89.89369449	     -9.99310944	     33.76286819	     36.70365772	     84.98416744	      0.00000000	      0.00000000
      3.28500000	     14.46970068	     10.35573696	     -2.27585679	     -0.35719909	      1.08728837	     -0.75583772	      0.64329625	     -9.12354604	     -8.12077089	     28.35941456	      0.49496516	      1.44334530	      0.00000000	      0.00000000	     37.25453710	      5.18144595	      2.88690689	      9.21247356	      0.16078800	     -7.51153004	      0.00000000	      0.00000000	    -17.65478361	     -6.36284063	      3.79426319	     89.84263194	    -18.09874377	     40.41096935	     31.14348560	     85.37717680	      0.00000000	      0.00000000	     89.89377501	    -10.00554545	     33.80595613	     36.67716142	     84.96934849	      0.00000000	      0.00000000
      3.29000000	     14.50417373	     10.34143745	     -2.28455082	     -0.35721822	      1.08724065	     -0.75570497	      0.66962877	     -9.14925050	     -8.20979403	     28.50321071	      0.49747487	      1.37922118	      0.00000000	      0.00000000	     37.26822308	      5.14387275	      2.86679269	      9.21097418	      0.16076183	     -7.37154280	      0.00000000	      0.00000000	    -17.68946350	     -6.32396552	      3.76296357	     89.84576544	    -17.96933299	     40.87313889	     31.07359007	     81.89479431	      0.00000000	      0.00000000	     89.89327039	    -10.07168479	     34.18838887	     36.72201216	     81.46120537	      0.00000000	      0.00000000
      3.29500000	     14.47315447	     10.28478178	     -2.18348629	     -0.35725581	      1.08715603	     -0.75571305	      0.68602714	     -9.11695770	     -8.42752013	     28.51558409	      0.49769083	      1.36713649	      0.00000000	      0.00000000	     37.39328482	      5.12391011	      2.82360151	      9.24382476	      0.16133518	     -7.46570351	      0.00000000	      0.00000000	    -17.67968205	     -6.22291324	      3.74284337	     89.84344659	    -18.02621545	     40.25736106	     31.15398624	     85.33101239	      0.00000000	      0.00000000	     89.89426413	    -10.02155025	     33.81250482	     36.63242675	     84.93498889	      0.00000000	      0.00000000
      3.30000000	     14.48871426	     10.23635564	     -2.13880754	     -0.35725249	      1.08707937	     -0.75561766	      0.67254308	     -9.09060085	     -8.56501988	     28.55631927	      0.49840179	      1.33861255	      0.00000000	      0.00000000	     37.46448115	      5.07411239	      2.79346925	      9.31820459	      0.16263335	     -7.38964176	      0.00000000	      0.00000000	    -17.70629854	     -6.14654827	      3.70572220	     89.84351573	    -17.98352990	     40.27448375	     31.17426752	     85.15698429	      0.00000000	      0.00000000	     89.89472411	    -10.07272004	     33.88565839	     36.66277573	     84.92385174	      0.00000000	      0.00000000
      3.30500000	     14.46641967	     10.19162479	     -2.09039197	     -0.35726745	      1.08698910	     -0.75554167	      0.69827859	     -9.06021282	     -8.67307010	     28.59108450	      0.49900856	      1.32497212	      0.00000000	      0.00000000	     37.52260890	      5.04109803	      2.74107761	      9.21576186	      0.16084539	     -7.53760062	      0.00000000	      0.00000000	    -17.69568125	     -6.06403389	      3.68371352	     89.84420587	    -17.94669247	     40.23104853	     31.14351986	     85.30353683	      0.00000000	      0.00000000	     89.89541244	    -10.07659157	     33.87543426	     36.63516627	     84.94247716	      0.00000000	      0.00000000
      3.31000000	     14.46843260	     10.15261586	     -2.05395776	     -0.35726458	      1.08691591	     -0.75542100	      0.69770599	     -9.02121663	     -8.74450735	     28.61641657	      0.49945069	      1.30437034	      0.00000000	      0.00000000	     37.59997513	      5.00072871	      2.68227863	      9.19079469	      0.16040963	     -7.64012907	      0.00000000	      0.00000000	    -17.70404137	     -5.99718324	      3.65189119	     89.84515235	    -17.87339860	     40.13988668	     31.12799275	     85.23095526	      0.00000000	      0.00000000	     89.89540632	    -10.10717670	     33.91771971	     36.62373442	     84.86672905	      0.00000000	      0.00000000
      3.31500000	     14.46772747	     10.12777920	     -2.00468998	     -0.35730782	      1.08678207	     -0.75534006	      0.70651654	     -9.00224308	     -8.83988116	     28.65717538	      0.50016206	      1.30443712	      0.00000000	      0.00000000	     37.68085949	      4.97720258	      2.61516107	      9.21743330	      0.16087456	     -7.61097829	      0.00000000	      0.00000000	    -17.71803172	     -5.93922363	      3.60872842	     89.84515418	    -17.83581644	     40.07768943	     31.13865221	     85.23309501	      0.00000000	      0.00000000	     89.89615001	    -10.15347709	     33.93828955	     36.63857644	     85.00093264	      0.00000000	      0.00000000
      3.32000000	     14.49541353	     10.24382999	     -2.07594426	     -0.35726979	      1.08669712	     -0.75515766	      0.74268731	     -9.14496219	     -8.80942465	     28.78307281	      0.50235939	      1.36905824	      0.00000000	      0.00000000	     37.65986460	      5.01779510	      2.49773333	      9.05159408	      0.15798012	     -7.61167909	      0.00000000	      0.00000000	    -17.73987825	     -6.06552946	      3.59455878	     89.84880253	    -17.80107648	     41.17858869	     31.20170012	     79.14440079	      0.00000000	      0.00000000	     89.89618396	    -10.29225454	     34.79901850	     36.85073174	     78.64212559	      0.00000000	      0.00000000
      3.32500000	     14.45738804	     10.08524762	     -1.97114556	     -0.35732571	      1.08655994	     -0.75508411	      0.74560076	     -8.94507097	     -8.86978243	     28.73567614	      0.50153216	      1.34358477	      0.00000000	      0.00000000	     37.81860230	      4.90744686	      2.42274282	      9.13415068	      0.15942100	     -7.69645367	      0.00000000	      0.00000000	    -17.73305423	     -5.85514399	      3.57792219	     89.84669463	    -17.75532991	     39.93391591	     31.16097775	     85.33430352	      0.00000000	      0.00000000	     89.89730510	    -10.23145198	     33.95340332	     36.69141347	     84.88774457	      0.00000000	      0.00000000
      3.33000000	     14.42575196	     10.05051482	     -1.94015295	     -0.35736249	      1.08638333	     -0.75494343	      0.79649216	     -8.88894776	     -8.86675733	     28.77711007	      0.50225532	      1.36785270	      0.00000000	      0.00000000	     37.94424996	      4.86384034	      2.36270652	      9.16783865	      0.16000897	     -7.61576691	      0.00000000	      0.00000000	    -17.72149253	     -5.80203394	      3.56686001	     89.84709478	    -17.73416320	     39.96280320	     31.16726705	     85.26705519	      0.00000000	      0.00000000	     89.89783950	    -10.25208696	     33.91736182	     36.73277987	     84.92725082	      0.00000000	      0.00000000
